G04 #@! TF.GenerationSoftware,KiCad,Pcbnew,(6.0.1)*
G04 #@! TF.CreationDate,2022-01-30T22:17:43+01:00*
G04 #@! TF.ProjectId,Teensy41_DualMotor,5465656e-7379-4343-915f-4475616c4d6f,1*
G04 #@! TF.SameCoordinates,Original*
G04 #@! TF.FileFunction,Soldermask,Bot*
G04 #@! TF.FilePolarity,Negative*
%FSLAX46Y46*%
G04 Gerber Fmt 4.6, Leading zero omitted, Abs format (unit mm)*
G04 Created by KiCad (PCBNEW (6.0.1)) date 2022-01-30 22:17:43*
%MOMM*%
%LPD*%
G01*
G04 APERTURE LIST*
%ADD10R,1.700000X1.700000*%
%ADD11O,1.700000X1.700000*%
%ADD12R,1.600000X1.600000*%
%ADD13C,1.600000*%
G04 APERTURE END LIST*
D10*
X127000000Y-140970000D03*
D11*
X129540000Y-140970000D03*
X132080000Y-140970000D03*
X134620000Y-140970000D03*
X137160000Y-140970000D03*
D10*
X101600000Y-87630000D03*
D11*
X99060000Y-87630000D03*
X96520000Y-87630000D03*
X93980000Y-87630000D03*
X91440000Y-87630000D03*
D10*
X137160000Y-87630000D03*
D11*
X134620000Y-87630000D03*
X132080000Y-87630000D03*
X129540000Y-87630000D03*
X127000000Y-87630000D03*
D10*
X133330000Y-109160000D03*
D11*
X135870000Y-109160000D03*
X133330000Y-106620000D03*
X135870000Y-106620000D03*
X133330000Y-104080000D03*
X135870000Y-104080000D03*
X133330000Y-101540000D03*
X135870000Y-101540000D03*
X133330000Y-99000000D03*
X135870000Y-99000000D03*
D10*
X133350000Y-130780000D03*
D11*
X135890000Y-130780000D03*
X133350000Y-128240000D03*
X135890000Y-128240000D03*
X133350000Y-125700000D03*
X135890000Y-125700000D03*
X133350000Y-123160000D03*
X135890000Y-123160000D03*
X133350000Y-120620000D03*
X135890000Y-120620000D03*
D10*
X91440000Y-140970000D03*
D11*
X93980000Y-140970000D03*
X96520000Y-140970000D03*
X99060000Y-140970000D03*
X101600000Y-140970000D03*
D10*
X109220000Y-140995000D03*
D11*
X111760000Y-140995000D03*
X114300000Y-140995000D03*
X116840000Y-140995000D03*
X119380000Y-140995000D03*
D12*
X54610000Y-121920000D03*
D13*
X57150000Y-121920000D03*
X59690000Y-121920000D03*
X62230000Y-121920000D03*
X64770000Y-121920000D03*
X67310000Y-121920000D03*
X69850000Y-121920000D03*
X72390000Y-121920000D03*
X74930000Y-121920000D03*
X77470000Y-121920000D03*
X80010000Y-121920000D03*
X82550000Y-121920000D03*
X85090000Y-121920000D03*
X87630000Y-121920000D03*
X90170000Y-121920000D03*
X92710000Y-121920000D03*
X95250000Y-121920000D03*
X97790000Y-121920000D03*
X100330000Y-121920000D03*
X102870000Y-121920000D03*
X105410000Y-121920000D03*
X107950000Y-121920000D03*
X110490000Y-121920000D03*
X113030000Y-121920000D03*
X113030000Y-106680000D03*
X110490000Y-106680000D03*
X107950000Y-106680000D03*
X105410000Y-106680000D03*
X102870000Y-106680000D03*
X100330000Y-106680000D03*
X97790000Y-106680000D03*
X95250000Y-106680000D03*
X92710000Y-106680000D03*
X90170000Y-106680000D03*
X87630000Y-106680000D03*
X85090000Y-106680000D03*
X82550000Y-106680000D03*
X80010000Y-106680000D03*
X77470000Y-106680000D03*
X74930000Y-106680000D03*
X72390000Y-106680000D03*
X69850000Y-106680000D03*
X67310000Y-106680000D03*
X64770000Y-106680000D03*
X62230000Y-106680000D03*
X59690000Y-106680000D03*
X57150000Y-106680000D03*
X54610000Y-106680000D03*
D10*
X119350000Y-87630000D03*
D11*
X116810000Y-87630000D03*
X114270000Y-87630000D03*
X111730000Y-87630000D03*
X109190000Y-87630000D03*
D10*
X71120000Y-85090000D03*
D11*
X71120000Y-87630000D03*
X68580000Y-85090000D03*
X68580000Y-87630000D03*
X66040000Y-85090000D03*
X66040000Y-87630000D03*
X63500000Y-85090000D03*
X63500000Y-87630000D03*
X60960000Y-85090000D03*
X60960000Y-87630000D03*
X58420000Y-85090000D03*
X58420000Y-87630000D03*
X55880000Y-85090000D03*
X55880000Y-87630000D03*
X53340000Y-85090000D03*
X53340000Y-87630000D03*
X50800000Y-85090000D03*
X50800000Y-87630000D03*
X48260000Y-85090000D03*
X48260000Y-87630000D03*
X45720000Y-85090000D03*
X45720000Y-87630000D03*
X43180000Y-85090000D03*
X43180000Y-87630000D03*
X40640000Y-85090000D03*
X40640000Y-87630000D03*
X38100000Y-85090000D03*
X38100000Y-87630000D03*
X35560000Y-85090000D03*
X35560000Y-87630000D03*
X33020000Y-85090000D03*
X33020000Y-87630000D03*
X30480000Y-85090000D03*
X30480000Y-87630000D03*
X27940000Y-85090000D03*
X27940000Y-87630000D03*
D10*
X27940000Y-143510000D03*
D11*
X27940000Y-140970000D03*
X30480000Y-143510000D03*
X30480000Y-140970000D03*
X33020000Y-143510000D03*
X33020000Y-140970000D03*
X35560000Y-143510000D03*
X35560000Y-140970000D03*
X38100000Y-143510000D03*
X38100000Y-140970000D03*
X40640000Y-143510000D03*
X40640000Y-140970000D03*
X43180000Y-143510000D03*
X43180000Y-140970000D03*
X45720000Y-143510000D03*
X45720000Y-140970000D03*
X48260000Y-143510000D03*
X48260000Y-140970000D03*
X50800000Y-143510000D03*
X50800000Y-140970000D03*
X53340000Y-143510000D03*
X53340000Y-140970000D03*
X55880000Y-143510000D03*
X55880000Y-140970000D03*
X58420000Y-143510000D03*
X58420000Y-140970000D03*
X60960000Y-143510000D03*
X60960000Y-140970000D03*
X63500000Y-143510000D03*
X63500000Y-140970000D03*
X66040000Y-143510000D03*
X66040000Y-140970000D03*
X68580000Y-143510000D03*
X68580000Y-140970000D03*
X71120000Y-143510000D03*
X71120000Y-140970000D03*
M02*
