M48
; DRILL file {KiCad (6.0.1)} date Sun Jan 30 22:18:24 2022
; FORMAT={-:-/ absolute / inch / decimal}
; #@! TF.CreationDate,2022-01-30T22:18:24+01:00
; #@! TF.GenerationSoftware,Kicad,Pcbnew,(6.0.1)
; #@! TF.FileFunction,Plated,1,2,PTH
FMAT,2
INCH
; #@! TA.AperFunction,Plated,PTH,ViaDrill
T1C0.0157
; #@! TA.AperFunction,Plated,PTH,ComponentDrill
T2C0.0394
; #@! TA.AperFunction,Plated,PTH,ComponentDrill
T3C0.0433
%
G90
G05
T1
X1.4289Y-3.5382
X1.4327Y-3.5773
X1.5602Y-3.5198
X2.0098Y-3.9002
X2.0598Y-3.9502
X2.0772Y-4.0
X2.12Y-3.64
X2.1823Y-3.68
X2.25Y-4.35
X2.34Y-4.68
X2.35Y-4.62
X2.3727Y-4.1224
X2.381Y-4.5915
X2.41Y-4.11
X2.52Y-3.9
X2.57Y-3.95
X2.5995Y-4.67
X2.6277Y-4.6415
X2.63Y-4.0
X2.9Y-4.9
X3.0Y-3.9
X3.0Y-3.95
X3.0Y-4.0
X3.0Y-4.9
X3.0762Y-5.2275
X3.1Y-4.075
X3.1Y-4.9
X3.1Y-5.2588
X3.1369Y-5.2881
X3.1715Y-5.3228
X3.1785Y-5.1819
X3.1985Y-5.2159
X3.1994Y-5.3506
X3.1998Y-4.075
X3.2263Y-5.2437
X3.2297Y-4.7273
X3.2373Y-4.6887
X3.25Y-5.17
X3.2813Y-5.2987
X3.3Y-4.075
X3.33Y-4.46
X3.35Y-5.4
X3.4Y-5.4
X3.4098Y-4.5998
X3.41Y-4.4585
X3.4195Y-4.6569
X3.45Y-3.9
X3.45Y-3.95
X3.45Y-4.0
X3.45Y-4.4408
X3.45Y-4.6
X3.45Y-5.3
X3.45Y-5.4
X3.4848Y-5.2248
X3.5Y-5.3
X3.55Y-5.4
X3.6Y-5.4
X3.6298Y-5.0298
X3.65Y-4.4408
X3.65Y-4.6
X3.65Y-5.3
X3.65Y-5.4
X3.7Y-5.3
X3.75Y-4.44
X3.75Y-4.5962
X3.75Y-5.15
X3.75Y-5.3
X3.8115Y-5.0038
X3.9Y-4.95
X3.9077Y-4.9077
X4.15Y-5.28
X4.15Y-5.4
X4.2Y-4.4762
X4.2Y-4.6
X4.61Y-4.17
X4.7Y-4.45
X4.8109Y-4.2109
X4.85Y-4.75
X4.88Y-4.37
X5.0Y-4.5
X5.0Y-4.6
X5.02Y-4.25
X5.05Y-4.9
X5.116Y-4.784
T2
X1.1Y-3.35
X1.1Y-3.45
X1.1Y-5.55
X1.1Y-5.65
X1.2Y-3.35
X1.2Y-3.45
X1.2Y-5.55
X1.2Y-5.65
X1.3Y-3.35
X1.3Y-3.45
X1.3Y-5.55
X1.3Y-5.65
X1.4Y-3.35
X1.4Y-3.45
X1.4Y-5.55
X1.4Y-5.65
X1.5Y-3.35
X1.5Y-3.45
X1.5Y-5.55
X1.5Y-5.65
X1.6Y-3.35
X1.6Y-3.45
X1.6Y-5.55
X1.6Y-5.65
X1.7Y-3.35
X1.7Y-3.45
X1.7Y-5.55
X1.7Y-5.65
X1.8Y-3.35
X1.8Y-3.45
X1.8Y-5.55
X1.8Y-5.65
X1.9Y-3.35
X1.9Y-3.45
X1.9Y-5.55
X1.9Y-5.65
X2.0Y-3.35
X2.0Y-3.45
X2.0Y-5.55
X2.0Y-5.65
X2.1Y-3.35
X2.1Y-3.45
X2.1Y-5.55
X2.1Y-5.65
X2.2Y-3.35
X2.2Y-3.45
X2.2Y-5.55
X2.2Y-5.65
X2.3Y-3.35
X2.3Y-3.45
X2.3Y-5.55
X2.3Y-5.65
X2.4Y-3.35
X2.4Y-3.45
X2.4Y-5.55
X2.4Y-5.65
X2.5Y-3.35
X2.5Y-3.45
X2.5Y-5.55
X2.5Y-5.65
X2.6Y-3.35
X2.6Y-3.45
X2.6Y-5.55
X2.6Y-5.65
X2.7Y-3.35
X2.7Y-3.45
X2.7Y-5.55
X2.7Y-5.65
X2.8Y-3.35
X2.8Y-3.45
X2.8Y-5.55
X2.8Y-5.65
X3.6Y-3.45
X3.6Y-5.55
X3.7Y-3.45
X3.7Y-5.55
X3.8Y-3.45
X3.8Y-5.55
X3.9Y-3.45
X3.9Y-5.55
X4.0Y-3.45
X4.0Y-5.55
X4.2988Y-3.45
X4.3Y-5.551
X4.3988Y-3.45
X4.4Y-5.551
X4.4988Y-3.45
X4.5Y-5.551
X4.5988Y-3.45
X4.6Y-5.551
X4.6988Y-3.45
X4.7Y-5.551
X5.0Y-3.45
X5.0Y-5.55
X5.1Y-3.45
X5.1Y-5.55
X5.2Y-3.45
X5.2Y-5.55
X5.2492Y-3.8976
X5.2492Y-3.9976
X5.2492Y-4.0976
X5.2492Y-4.1976
X5.2492Y-4.2976
X5.25Y-4.7488
X5.25Y-4.8488
X5.25Y-4.9488
X5.25Y-5.0488
X5.25Y-5.1488
X5.3Y-3.45
X5.3Y-5.55
X5.3492Y-3.8976
X5.3492Y-3.9976
X5.3492Y-4.0976
X5.3492Y-4.1976
X5.3492Y-4.2976
X5.35Y-4.7488
X5.35Y-4.8488
X5.35Y-4.9488
X5.35Y-5.0488
X5.35Y-5.1488
X5.4Y-3.45
X5.4Y-5.55
T3
X2.15Y-4.2
X2.15Y-4.8
X2.25Y-4.2
X2.25Y-4.8
X2.35Y-4.2
X2.35Y-4.8
X2.45Y-4.2
X2.45Y-4.8
X2.55Y-4.2
X2.55Y-4.8
X2.65Y-4.2
X2.65Y-4.8
X2.75Y-4.2
X2.75Y-4.8
X2.85Y-4.2
X2.85Y-4.8
X2.95Y-4.2
X2.95Y-4.8
X3.05Y-4.2
X3.05Y-4.8
X3.15Y-4.2
X3.15Y-4.8
X3.25Y-4.2
X3.25Y-4.8
X3.35Y-4.2
X3.35Y-4.8
X3.45Y-4.2
X3.45Y-4.8
X3.55Y-4.2
X3.55Y-4.8
X3.65Y-4.2
X3.65Y-4.8
X3.75Y-4.2
X3.75Y-4.8
X3.85Y-4.2
X3.85Y-4.8
X3.95Y-4.2
X3.95Y-4.8
X4.05Y-4.2
X4.05Y-4.8
X4.15Y-4.2
X4.15Y-4.8
X4.25Y-4.2
X4.25Y-4.8
X4.35Y-4.2
X4.35Y-4.8
X4.45Y-4.2
X4.45Y-4.8
T0
M30
