G04 #@! TF.GenerationSoftware,KiCad,Pcbnew,(6.0.1)*
G04 #@! TF.CreationDate,2022-01-30T22:17:43+01:00*
G04 #@! TF.ProjectId,Teensy41_DualMotor,5465656e-7379-4343-915f-4475616c4d6f,1*
G04 #@! TF.SameCoordinates,Original*
G04 #@! TF.FileFunction,Soldermask,Top*
G04 #@! TF.FilePolarity,Negative*
%FSLAX46Y46*%
G04 Gerber Fmt 4.6, Leading zero omitted, Abs format (unit mm)*
G04 Created by KiCad (PCBNEW (6.0.1)) date 2022-01-30 22:17:43*
%MOMM*%
%LPD*%
G01*
G04 APERTURE LIST*
G04 Aperture macros list*
%AMRoundRect*
0 Rectangle with rounded corners*
0 $1 Rounding radius*
0 $2 $3 $4 $5 $6 $7 $8 $9 X,Y pos of 4 corners*
0 Add a 4 corners polygon primitive as box body*
4,1,4,$2,$3,$4,$5,$6,$7,$8,$9,$2,$3,0*
0 Add four circle primitives for the rounded corners*
1,1,$1+$1,$2,$3*
1,1,$1+$1,$4,$5*
1,1,$1+$1,$6,$7*
1,1,$1+$1,$8,$9*
0 Add four rect primitives between the rounded corners*
20,1,$1+$1,$2,$3,$4,$5,0*
20,1,$1+$1,$4,$5,$6,$7,0*
20,1,$1+$1,$6,$7,$8,$9,0*
20,1,$1+$1,$8,$9,$2,$3,0*%
G04 Aperture macros list end*
%ADD10RoundRect,0.237500X-0.237500X0.250000X-0.237500X-0.250000X0.237500X-0.250000X0.237500X0.250000X0*%
%ADD11RoundRect,0.237500X0.237500X-0.300000X0.237500X0.300000X-0.237500X0.300000X-0.237500X-0.300000X0*%
%ADD12R,1.700000X1.700000*%
%ADD13O,1.700000X1.700000*%
%ADD14RoundRect,0.237500X0.237500X-0.250000X0.237500X0.250000X-0.237500X0.250000X-0.237500X-0.250000X0*%
%ADD15RoundRect,0.150000X-0.825000X-0.150000X0.825000X-0.150000X0.825000X0.150000X-0.825000X0.150000X0*%
%ADD16RoundRect,0.237500X-0.237500X0.300000X-0.237500X-0.300000X0.237500X-0.300000X0.237500X0.300000X0*%
%ADD17RoundRect,0.237500X-0.300000X-0.237500X0.300000X-0.237500X0.300000X0.237500X-0.300000X0.237500X0*%
%ADD18R,1.600000X1.600000*%
%ADD19C,1.600000*%
%ADD20RoundRect,0.237500X0.300000X0.237500X-0.300000X0.237500X-0.300000X-0.237500X0.300000X-0.237500X0*%
G04 APERTURE END LIST*
D10*
X82550000Y-98147500D03*
X82550000Y-99972500D03*
X118110000Y-109220000D03*
X118110000Y-111045000D03*
X85090000Y-98147500D03*
X85090000Y-99972500D03*
D11*
X82550000Y-103732500D03*
X82550000Y-102007500D03*
D10*
X128270000Y-110847500D03*
X128270000Y-112672500D03*
X80010000Y-98147500D03*
X80010000Y-99972500D03*
D12*
X127000000Y-140970000D03*
D13*
X129540000Y-140970000D03*
X132080000Y-140970000D03*
X134620000Y-140970000D03*
X137160000Y-140970000D03*
D10*
X128270000Y-126445000D03*
X128270000Y-128270000D03*
D12*
X101600000Y-87630000D03*
D13*
X99060000Y-87630000D03*
X96520000Y-87630000D03*
X93980000Y-87630000D03*
X91440000Y-87630000D03*
D12*
X137160000Y-87630000D03*
D13*
X134620000Y-87630000D03*
X132080000Y-87630000D03*
X129540000Y-87630000D03*
X127000000Y-87630000D03*
D14*
X77470000Y-130452500D03*
X77470000Y-128627500D03*
D15*
X120715000Y-103147500D03*
X120715000Y-104417500D03*
X120715000Y-105687500D03*
X120715000Y-106957500D03*
X120715000Y-108227500D03*
X120715000Y-109497500D03*
X120715000Y-110767500D03*
X120715000Y-112037500D03*
X125665000Y-112037500D03*
X125665000Y-110767500D03*
X125665000Y-109497500D03*
X125665000Y-108227500D03*
X125665000Y-106957500D03*
X125665000Y-105687500D03*
X125665000Y-104417500D03*
X125665000Y-103147500D03*
D11*
X130790000Y-130372500D03*
X130790000Y-128647500D03*
D16*
X80010000Y-124867500D03*
X80010000Y-126592500D03*
D11*
X80010000Y-103732500D03*
X80010000Y-102007500D03*
X128270000Y-105002500D03*
X128270000Y-103277500D03*
D12*
X133330000Y-109160000D03*
D13*
X135870000Y-109160000D03*
X133330000Y-106620000D03*
X135870000Y-106620000D03*
X133330000Y-104080000D03*
X135870000Y-104080000D03*
X133330000Y-101540000D03*
X135870000Y-101540000D03*
X133330000Y-99000000D03*
X135870000Y-99000000D03*
D14*
X80010000Y-130452500D03*
X80010000Y-128627500D03*
X118110000Y-121285000D03*
X118110000Y-119460000D03*
D12*
X133350000Y-130780000D03*
D13*
X135890000Y-130780000D03*
X133350000Y-128240000D03*
X135890000Y-128240000D03*
X133350000Y-125700000D03*
X135890000Y-125700000D03*
X133350000Y-123160000D03*
X135890000Y-123160000D03*
X133350000Y-120620000D03*
X135890000Y-120620000D03*
D14*
X74930000Y-130452500D03*
X74930000Y-128627500D03*
D17*
X133249500Y-133350000D03*
X134974500Y-133350000D03*
D12*
X91440000Y-140970000D03*
D13*
X93980000Y-140970000D03*
X96520000Y-140970000D03*
X99060000Y-140970000D03*
X101600000Y-140970000D03*
D14*
X118110000Y-104417500D03*
X118110000Y-102592500D03*
D17*
X132487500Y-111700000D03*
X134212500Y-111700000D03*
X112067000Y-138176000D03*
X113792000Y-138176000D03*
D15*
X120715000Y-119657500D03*
X120715000Y-120927500D03*
X120715000Y-122197500D03*
X120715000Y-123467500D03*
X120715000Y-124737500D03*
X120715000Y-126007500D03*
X120715000Y-127277500D03*
X120715000Y-128547500D03*
X125665000Y-128547500D03*
X125665000Y-127277500D03*
X125665000Y-126007500D03*
X125665000Y-124737500D03*
X125665000Y-123467500D03*
X125665000Y-122197500D03*
X125665000Y-120927500D03*
X125665000Y-119657500D03*
D11*
X130790000Y-108782500D03*
X130790000Y-107057500D03*
D12*
X109220000Y-140995000D03*
D13*
X111760000Y-140995000D03*
X114300000Y-140995000D03*
X116840000Y-140995000D03*
X119380000Y-140995000D03*
D10*
X118110000Y-125730000D03*
X118110000Y-127555000D03*
D16*
X74930000Y-124867500D03*
X74930000Y-126592500D03*
D17*
X94387500Y-138176000D03*
X96112500Y-138176000D03*
D11*
X128270000Y-121512500D03*
X128270000Y-119787500D03*
X85090000Y-103732500D03*
X85090000Y-102007500D03*
D18*
X54610000Y-121920000D03*
D19*
X57150000Y-121920000D03*
X59690000Y-121920000D03*
X62230000Y-121920000D03*
X64770000Y-121920000D03*
X67310000Y-121920000D03*
X69850000Y-121920000D03*
X72390000Y-121920000D03*
X74930000Y-121920000D03*
X77470000Y-121920000D03*
X80010000Y-121920000D03*
X82550000Y-121920000D03*
X85090000Y-121920000D03*
X87630000Y-121920000D03*
X90170000Y-121920000D03*
X92710000Y-121920000D03*
X95250000Y-121920000D03*
X97790000Y-121920000D03*
X100330000Y-121920000D03*
X102870000Y-121920000D03*
X105410000Y-121920000D03*
X107950000Y-121920000D03*
X110490000Y-121920000D03*
X113030000Y-121920000D03*
X113030000Y-106680000D03*
X110490000Y-106680000D03*
X107950000Y-106680000D03*
X105410000Y-106680000D03*
X102870000Y-106680000D03*
X100330000Y-106680000D03*
X97790000Y-106680000D03*
X95250000Y-106680000D03*
X92710000Y-106680000D03*
X90170000Y-106680000D03*
X87630000Y-106680000D03*
X85090000Y-106680000D03*
X82550000Y-106680000D03*
X80010000Y-106680000D03*
X77470000Y-106680000D03*
X74930000Y-106680000D03*
X72390000Y-106680000D03*
X69850000Y-106680000D03*
X67310000Y-106680000D03*
X64770000Y-106680000D03*
X62230000Y-106680000D03*
X59690000Y-106680000D03*
X57150000Y-106680000D03*
X54610000Y-106680000D03*
D16*
X77470000Y-124867500D03*
X77470000Y-126592500D03*
D17*
X129947500Y-138176000D03*
X131672500Y-138176000D03*
D20*
X116402500Y-90170000D03*
X114677500Y-90170000D03*
X98652500Y-90170000D03*
X96927500Y-90170000D03*
X134212500Y-90170000D03*
X132487500Y-90170000D03*
D12*
X119350000Y-87630000D03*
D13*
X116810000Y-87630000D03*
X114270000Y-87630000D03*
X111730000Y-87630000D03*
X109190000Y-87630000D03*
D12*
X71120000Y-85090000D03*
D13*
X71120000Y-87630000D03*
X68580000Y-85090000D03*
X68580000Y-87630000D03*
X66040000Y-85090000D03*
X66040000Y-87630000D03*
X63500000Y-85090000D03*
X63500000Y-87630000D03*
X60960000Y-85090000D03*
X60960000Y-87630000D03*
X58420000Y-85090000D03*
X58420000Y-87630000D03*
X55880000Y-85090000D03*
X55880000Y-87630000D03*
X53340000Y-85090000D03*
X53340000Y-87630000D03*
X50800000Y-85090000D03*
X50800000Y-87630000D03*
X48260000Y-85090000D03*
X48260000Y-87630000D03*
X45720000Y-85090000D03*
X45720000Y-87630000D03*
X43180000Y-85090000D03*
X43180000Y-87630000D03*
X40640000Y-85090000D03*
X40640000Y-87630000D03*
X38100000Y-85090000D03*
X38100000Y-87630000D03*
X35560000Y-85090000D03*
X35560000Y-87630000D03*
X33020000Y-85090000D03*
X33020000Y-87630000D03*
X30480000Y-85090000D03*
X30480000Y-87630000D03*
X27940000Y-85090000D03*
X27940000Y-87630000D03*
D12*
X27940000Y-143510000D03*
D13*
X27940000Y-140970000D03*
X30480000Y-143510000D03*
X30480000Y-140970000D03*
X33020000Y-143510000D03*
X33020000Y-140970000D03*
X35560000Y-143510000D03*
X35560000Y-140970000D03*
X38100000Y-143510000D03*
X38100000Y-140970000D03*
X40640000Y-143510000D03*
X40640000Y-140970000D03*
X43180000Y-143510000D03*
X43180000Y-140970000D03*
X45720000Y-143510000D03*
X45720000Y-140970000D03*
X48260000Y-143510000D03*
X48260000Y-140970000D03*
X50800000Y-143510000D03*
X50800000Y-140970000D03*
X53340000Y-143510000D03*
X53340000Y-140970000D03*
X55880000Y-143510000D03*
X55880000Y-140970000D03*
X58420000Y-143510000D03*
X58420000Y-140970000D03*
X60960000Y-143510000D03*
X60960000Y-140970000D03*
X63500000Y-143510000D03*
X63500000Y-140970000D03*
X66040000Y-143510000D03*
X66040000Y-140970000D03*
X68580000Y-143510000D03*
X68580000Y-140970000D03*
X71120000Y-143510000D03*
X71120000Y-140970000D03*
M02*
